<svg
    xmlns="http://www.w3.org/2000/svg"
    width="48"
    height="48"
    viewBox="0 0 24 24"
    fill="white"
>
    <path
        fill-rule="evenodd"
        clip-rule="evenodd"
        d="M12 0.297C5.373 0.297 0 5.67 0 12.297C0 17.474 3.438 21.798 8.207 23.428C8.805 23.538 9.025 23.178 9.025 22.861C9.025 22.574 9.014 21.739 9.008 20.743C5.672 21.539 4.968 19.274 4.968 19.274C4.438 17.948 3.722 17.637 3.722 17.637C2.733 17.019 3.805 17.034 3.805 17.034C4.905 17.102 5.472 18.153 5.472 18.153C6.456 19.909 8.064 19.444 8.737 19.142C8.847 18.448 9.126 17.975 9.443 17.687C6.885 17.399 4.287 16.34 4.287 11.74C4.287 10.394 4.737 9.266 5.487 8.37C5.362 8.083 4.962 6.825 5.612 5.179C5.612 5.179 6.67 4.862 8.987 6.49C9.997 6.224 11.06 6.086 12.12 6.08C13.18 6.086 14.243 6.224 15.253 6.49C17.57 4.862 18.627 5.179 18.627 5.179C19.277 6.825 18.877 8.083 18.752 8.37C19.503 9.266 19.952 10.394 19.952 11.74C19.952 16.351 17.349 17.395 14.784 17.678C15.185 18.021 15.542 18.678 15.542 19.674C15.542 21.094 15.526 22.37 15.526 22.861C15.526 23.178 15.746 23.543 16.349 23.428C21.116 21.798 24.552 17.474 24.552 12.297C24.552 5.67 19.179 0.297 12 0.297Z"
    />
</svg>
