<svg
    xmlns="http://www.w3.org/2000/svg"
    width="48"
    height="48"
    viewBox="0 0 24 24"
    fill="white"
>
    <path
        d="M23.643 4.937c-.835.37-1.73.62-2.675.733.961-.575 1.7-1.486 2.048-2.572-.899.53-1.897.915-2.958 1.122a5.145 5.145 0 0 0-8.767 4.692A14.594 14.594 0 0 1 1.64 3.16a5.13 5.13 0 0 0 1.591 6.855c-.75-.023-1.46-.23-2.08-.574v.058a5.143 5.143 0 0 0 4.123 5.043 5.192 5.192 0 0 1-2.07.078 5.144 5.144 0 0 0 4.8 3.563 10.309 10.309 0 0 1-6.386 2.203c-.414 0-.823-.024-1.23-.07a14.508 14.508 0 0 0 7.86 2.306c9.43 0 14.58-7.81 14.58-14.58 0-.223-.005-.445-.015-.666a10.34 10.34 0 0 0 2.54-2.635z"
    />
</svg>
